<svg width="1600" height="460" viewBox="0 0 1600 460" fill="none" xmlns="http://www.w3.org/2000/svg">
<rect y="230" width="200" height="115" fill="#E4281D"/>
<path d="M1600 345H1400V460H1600V345Z" fill="#E4281D"/>
<rect x="400" y="230" width="200" height="115" fill="#E4281D"/>
<path d="M1200 345H1000V460H1200V345Z" fill="#E4281D"/>
<rect x="800" y="230" width="200" height="115" fill="#E4281D"/>
<path d="M800 345H600V460H800V345Z" fill="#E4281D"/>
<rect x="1200" y="230" width="200" height="115" fill="#E4281D"/>
<path d="M400 345H200V460H400V345Z" fill="#E4281D"/>
<rect x="200" y="230" width="200" height="115" fill="#FFF1D7"/>
<path d="M1400 345H1200V460H1400V345Z" fill="#FFF1D7"/>
<rect x="600" y="230" width="200" height="115" fill="#FFF1D7"/>
<path d="M1000 345H800V460H1000V345Z" fill="#FFF1D7"/>
<rect x="1000" y="230" width="200" height="115" fill="#FFF1D7"/>
<path d="M600 345H400V460H600V345Z" fill="#FFF1D7"/>
<rect x="1400" y="230" width="200" height="115" fill="#FFF1D7"/>
<path d="M200 345H0V460H200V345Z" fill="#FFF1D7"/>
<path d="M0 0H200V115H0V0Z" fill="#E4281D"/>
<rect width="200" height="115" transform="matrix(-1 0 0 1 1600 115)" fill="#E4281D"/>
<path d="M400 0H600V115H400V0Z" fill="#E4281D"/>
<rect width="200" height="115" transform="matrix(-1 0 0 1 1200 115)" fill="#E4281D"/>
<path d="M800 0H1000V115H800V0Z" fill="#E4281D"/>
<rect width="200" height="115" transform="matrix(-1 0 0 1 800 115)" fill="#E4281D"/>
<path d="M1200 0H1400V115H1200V0Z" fill="#E4281D"/>
<rect width="200" height="115" transform="matrix(-1 0 0 1 400 115)" fill="#E4281D"/>
<path d="M200 0H400V115H200V0Z" fill="#FFF1D7"/>
<rect width="200" height="115" transform="matrix(-1 0 0 1 1400 115)" fill="#FFF1D7"/>
<path d="M600 0H800V115H600V0Z" fill="#FFF1D7"/>
<rect width="200" height="115" transform="matrix(-1 0 0 1 1000 115)" fill="#FFF1D7"/>
<path d="M1000 0H1200V115H1000V0Z" fill="#FFF1D7"/>
<rect width="200" height="115" transform="matrix(-1 0 0 1 600 115)" fill="#FFF1D7"/>
<path d="M1400 0H1600V115H1400V0Z" fill="#FFF1D7"/>
<rect width="200" height="115" transform="matrix(-1 0 0 1 200 115)" fill="#FFF1D7"/>
</svg>
