<svg width="98" height="47" viewBox="0 0 98 47" fill="none" xmlns="http://www.w3.org/2000/svg">
<path d="M14.983 0.787787H20.8198V16.6022C20.8198 18.4869 20.4263 20.0833 19.6392 21.3914C18.852 22.6885 17.749 23.6697 16.3299 24.3348C14.9109 25 13.2424 25.3326 11.3245 25.3326C9.42879 25.3326 7.76032 25 6.31912 24.3348C4.889 23.6697 3.7693 22.6885 2.96001 21.3914C2.1618 20.0833 1.7627 18.4869 1.7627 16.6022V0.787787H7.6162V16.6022C7.6162 17.6 7.76032 18.4148 8.04857 19.0467C8.33681 19.6675 8.75808 20.1221 9.31239 20.4103C9.8667 20.6986 10.5374 20.8427 11.3245 20.8427C12.1227 20.8427 12.7934 20.6986 13.3367 20.4103C13.8799 20.1221 14.2901 19.6675 14.5672 19.0467C14.8444 18.4148 14.983 17.6 14.983 16.6022V0.787787ZM20.4081 0.787787H29.9367C31.7992 0.787787 33.4177 1.06494 34.7924 1.61925C36.1671 2.17356 37.2258 2.99394 37.9686 4.08038C38.7225 5.16683 39.0994 6.50825 39.0994 8.10466C39.0994 9.49044 38.8832 10.6489 38.4509 11.5802C38.0185 12.5114 37.4143 13.2819 36.6383 13.8916C35.8733 14.4903 34.9809 14.9836 33.961 15.3717L32.0486 16.4526H24.0499L24.0167 11.946H29.9367C30.6794 11.946 31.2947 11.813 31.7825 11.5469C32.2703 11.2809 32.6362 10.9039 32.8801 10.4161C33.135 9.91725 33.2625 9.32414 33.2625 8.6368C33.2625 7.93837 33.135 7.33972 32.8801 6.84084C32.6251 6.34196 32.2481 5.95949 31.7493 5.69342C31.2615 5.42735 30.6573 5.29432 29.9367 5.29432H26.245V25H20.4081V0.787787ZM33.6616 25L28.307 14.2908L34.4931 14.2575L39.9142 24.7506V25H33.6616ZM48.4158 14.7065H42.1798L42.1465 10.8818H47.2018C48.1109 10.8818 48.8371 10.782 49.3803 10.5824C49.9235 10.3718 50.3171 10.0669 50.561 9.66782C50.8159 9.26871 50.9434 8.76983 50.9434 8.17118C50.9434 7.48384 50.8159 6.92953 50.561 6.50825C50.306 6.08698 49.9013 5.78211 49.347 5.59364C48.8038 5.39409 48.0998 5.29432 47.2351 5.29432H44.3749V25H38.538V0.787787H47.2351C48.7317 0.787787 50.0676 0.926364 51.2428 1.20352C52.4179 1.46959 53.4156 1.87978 54.236 2.43408C55.0675 2.98839 55.6994 3.68682 56.1318 4.52937C56.5641 5.36084 56.7803 6.34196 56.7803 7.47275C56.7803 8.45942 56.5697 9.38512 56.1484 10.2498C55.7271 11.1146 55.0231 11.8185 54.0365 12.3618C53.0609 12.8939 51.725 13.171 50.0288 13.1932L48.4158 14.7065ZM48.183 25H40.7663L42.7618 20.5101H48.183C48.9812 20.5101 49.6186 20.3881 50.0953 20.1443C50.5831 19.8893 50.9323 19.5567 51.143 19.1465C51.3647 18.7252 51.4756 18.2596 51.4756 17.7496C51.4756 17.1288 51.3702 16.5911 51.1596 16.1366C50.9601 15.6821 50.6386 15.3329 50.1951 15.089C49.7517 14.834 49.1586 14.7065 48.4158 14.7065H43.5101L43.5434 10.8818H49.4135L50.7771 12.4116C52.3957 12.3451 53.6762 12.5724 54.6185 13.0934C55.5719 13.6145 56.2537 14.3018 56.6639 15.1555C57.0741 16.0091 57.2792 16.9015 57.2792 17.8328C57.2792 19.4181 56.9355 20.7429 56.2482 21.8072C55.5719 22.8715 54.5575 23.6697 53.205 24.2018C51.8525 24.7339 50.1785 25 48.183 25ZM66.6953 5.87634L60.7919 25H54.5227L63.4194 0.787787H67.3938L66.6953 5.87634ZM71.5843 25L65.6643 5.87634L64.8994 0.787787H68.9237L77.8702 25H71.5843ZM71.3515 15.9703V20.4768H58.9295V15.9703H71.3515ZM95.7839 0.787787V25H89.9637L81.3996 9.93388V25H75.5627V0.787787H81.3996L89.9637 15.8539V0.787787H95.7839Z" fill="white"/>
<path d="M10.1354 39.6099H4.61452V37.0657H10.1354C11.1554 37.0657 11.9813 36.9215 12.6132 36.6333C13.2451 36.334 13.7107 35.9293 14.0101 35.4194C14.3094 34.9094 14.4591 34.3218 14.4591 33.6567C14.4591 33.0247 14.3094 32.4372 14.0101 31.894C13.7107 31.3507 13.2451 30.9128 12.6132 30.5802C11.9813 30.2366 11.1554 30.0647 10.1354 30.0647H5.44599V46.8936H2.36957V27.5205H10.1354C11.7208 27.5205 13.0622 27.7865 14.1597 28.3187C15.2683 28.8397 16.1053 29.5603 16.6707 30.4805C17.2472 31.3895 17.5355 32.4372 17.5355 33.6234C17.5355 34.5546 17.3747 35.3916 17.0532 36.1344C16.7317 36.8661 16.255 37.4925 15.6231 38.0135C14.9912 38.5346 14.2152 38.9337 13.295 39.2108C12.3748 39.4769 11.3217 39.6099 10.1354 39.6099ZM24.2537 27.5205V46.8936H21.1773V27.5205H24.2537ZM43.3108 44.3659V46.8936H29.0429V44.3659H43.3108ZM42.8951 29.516L29.9908 46.8936H27.9953V44.8315L40.9328 27.5205H42.8951V29.516ZM41.6812 27.5205V30.0481H28.1449V27.5205H41.6812ZM60.9379 44.3659V46.8936H46.6699V44.3659H60.9379ZM60.5221 29.516L47.6178 46.8936H45.6223V44.8315L58.5599 27.5205H60.5221V29.516ZM59.3082 27.5205V30.0481H45.772V27.5205H59.3082ZM72.1293 30.231L65.5275 46.8936H62.3846L70.35 27.5205H72.3622L72.1293 30.231ZM77.8332 46.8936L71.2813 30.1645L71.0651 27.5205H73.0938L80.9595 46.8936H77.8332ZM77.3842 39.7263V42.254H65.8767V39.7263H77.3842Z" fill="white"/>
<path d="M74.6006 27.5852H95.9729L94.9304 46.8724H82.4197L74.6006 27.5852Z" fill="white"/>
</svg>
